<?xml version="1.0" encoding="UTF-8"?>
<!DOCTYPE svg PUBLIC "-//W3C//DTD SVG 1.1//EN" "http://www.w3.org/Graphics/SVG/1.1/DTD/svg11.dtd">
<!-- Creator: CorelDRAW 2020 (64-Bit) -->
<svg xmlns="http://www.w3.org/2000/svg" xml:space="preserve" width="109.713mm" height="25.1911mm" version="1.1" style="shape-rendering:geometricPrecision; text-rendering:geometricPrecision; image-rendering:optimizeQuality; fill-rule:evenodd; clip-rule:evenodd"
viewBox="0 0 4404.81 1011.39"
 xmlns:xlink="http://www.w3.org/1999/xlink"
 xmlns:xodm="http://www.corel.com/coreldraw/odm/2003">
 <defs>
  <style type="text/css">
   <![CDATA[
    .fil1 {fill:none;fill-rule:nonzero}
    .fil0 {fill:white;fill-rule:nonzero}
   ]]>
  </style>
 </defs>
 <g id="Слой_x0020_1">
  <metadata id="CorelCorpID_0Corel-Layer"/>
  <path class="fil0" d="M1149.73 395.36l-56.15 0 121.08 219.36 27.96 -50.89 -92.88 -168.47zm213.97 0l-106.92 193.66 -27.96 50.39 27.96 50.39 0 0 27.82 -50.39 135.25 -244.05 -56.15 0zm136.3 158.69l188.77 0 0 -42.36 -188.77 0 0 -51.27 -42.49 0 0 230.38 259.59 0 0 -42.49 -217.6 0 0.5 -94.26zm-42.87 -156.93l0 42.49 259.46 0 0 -42.49 -259.46 0zm302.83 293.18l42.49 0 0 -162.32 -42.49 -42.37 0 204.69zm191.03 -294.06l0 190.15 -191.03 -191.03 0 60.17 42.49 42.37 0 0 148.53 148.66 42.49 42.37 0 -292.18 -42.49 -0.5zm131.86 157.81l188.77 0 0 -42.36 -188.77 0 0 -51.27 -42.49 0 0 230.38 259.59 0 0 -42.49 -217.6 0 0.5 -94.26zm-42.87 -156.93l0 42.49 259.46 0 0 -42.49 -259.46 0zm483.71 141.52l-5.26 -8.4c0.38,0 0.88,0 1.25,0 0,0 0,0 0,0 1,-0.5 1.88,-0.88 2.76,-1.38 0,0 0,0 0,0 0.88,-0.38 1.75,-0.88 2.63,-1.25 1.75,-1.38 3.51,-2.63 5.26,-4.01 0.5,-0.5 0.88,-0.88 1.38,-1.38 0.38,-0.37 0.88,-0.88 1.26,-1.25 0.88,-0.88 1.75,-1.75 2.63,-2.63 0,0 0,0 0,0 0.5,-0.5 1,-0.88 1.38,-1.38 1.75,-1.75 3.51,-3.51 5.26,-5.26 19.93,-19.43 34.09,-44.75 40.24,-72.95 2.26,-10.15 3.63,-20.81 3.63,-31.84 0,-3.64 0,-7.15 -0.5,-10.66l-243.67 0 0 294.56 42.49 0 0 -137.13 54.4 0c0.88,0 1.75,0 2.63,0 0.5,0 0.88,0 1.38,0 0.88,0 1.75,0 2.63,0 0,0 0,0 0,0 1.25,0 2.63,0 4.01,0 0,0 0,0 0,0 1.25,0 2.63,0 3.89,0 0.88,0 1.75,0 2.63,0 0.5,0 1,0 1.38,0 0.88,0 1.75,0 2.63,0 0.5,0 0.88,0 1.38,0 0.88,0 1.75,0 2.63,0 2.63,-0.5 5.27,-0.88 7.9,-1.38 1,-0.37 1.88,-0.88 2.76,-1.25 0.38,0 0.88,0 1.25,0 0.88,0 1.75,0 2.63,0 0,0 0,0 0,0l2.26 3.89 84.48 138.88 49.52 0 -91.13 -155.18zm-43.75 -32.71c-12.78,5.77 -26.95,8.77 -41.61,8.77l-54.4 0 0 -72.45 154.42 0c-5.39,15.92 -14.16,30.46 -26.2,42.49 -9.27,9.27 -19.81,16.29 -31.84,21.18l-0.38 0zm154.34 184.38l56.16 0 93.26 -168.46 -27.83 -50.89 -121.59 219.36zm191.4 -244.55l-27.83 -50.39 0 0 -27.83 50.39 27.83 50.39 107.04 193.66 56.16 0 -135.37 -244.05z"/>
  <path class="fil0" d="M3371.94 522.21l-83.98 0c-2.26,0 -4.89,0 -7.52,0 -1.38,0 -2.76,0 -4.01,0 -21.18,-2.13 -37.6,-19.8 -37.6,-41.49 0,-23.06 18.55,-41.61 41.61,-41.61l92.76 0c21.68,0.88 38.98,18.18 40.24,39.86l42.49 0c-0.38,-14.16 -4.39,-27.45 -11.03,-38.98 0,0 0,0 0,0 -14.16,-24.7 -40.73,-41.49 -71.2,-42.37 -0.88,0 -1.75,0 -2.63,0 -0.88,0 -1.75,0 -2.63,0l-89.37 0c-31.34,0 -58.79,17.18 -73.45,42.37 -7.02,12.41 -11.03,26.57 -11.03,41.61 0,15.04 4.01,29.2 11.03,41.49 3.63,6.27 8.02,12.03 12.91,16.92 15.42,15.92 36.73,25.57 60.17,25.57l91.5 0c22.94,0 41.49,18.55 41.49,41.61 0,22.94 -18.55,41.49 -41.49,41.49l-91.5 0c-22.19,0 -40.36,-17.67 -41.61,-39.73l-42.49 0c0.5,14.16 4.51,27.45 11.03,38.86 14.66,25.2 42.12,42.49 73.45,42.49l91.5 0c31.46,0 58.79,-17.3 73.45,-42.49 7.02,-12.28 11.03,-26.45 11.03,-41.49 0,-15.04 -4.01,-29.2 -11.03,-41.61 -14.67,-25.19 -41.99,-42.49 -73.45,-42.49l1.38 0zm470.86 -121.96l-83.98 187.02 -61.05 -135.25 -23.06 -51.77 0 0 -22.94 51.77 -61.05 135.25 -83.98 -187.02 -46.5 0 107.55 238.78 23.44 51.77 23.44 -51.77 60.92 -135.37 61.05 135.37 23.44 51.77 23.44 -51.77 107.42 -238.78 -48.13 0zm-28.32 290.05l56.16 0 93.26 -168.46 -27.83 -50.89 -121.59 219.36zm191.4 -244.55l-27.83 -50.39 0 0 -27.83 50.39 27.83 50.39 107.04 193.66 56.16 0 -135.37 -244.05zm398.55 29.2c0,-41.99 -32.72,-76.08 -73.83,-78.21l0 0 -161.95 0 0 293.56 42.49 0 0 -137.13 122.09 0 -0.5 -0.38c40.23,-3.13 72.07,-36.72 72.07,-77.84l-0.37 0zm-77.84 35.85l-115.44 0 0 -71.7 112.31 0c0,0 0,0 0,0 0.88,0 1.76,0 2.63,0 19.93,0 35.85,15.92 35.85,35.85 0,19.93 -15.92,35.85 -35.85,35.85l0.5 0z"/>
  <path class="fil0" d="M744 143.87l40.73 -71.79c4.5,-7.95 1.73,-18.05 -6.22,-22.56 -7.95,-4.5 -18.04,-1.73 -22.55,6.22l-39.26 69.16 -47.94 84.47c-0.13,0.22 -0.26,0.48 -0.37,0.72 8.84,6.46 17.31,13.17 25.41,20.13 59.7,51.02 99.77,115.01 118.17,193.19 21.03,89.39 9.37,175.06 -34.57,255.68 -38.96,71.48 -96.03,124.42 -170.57,157.19 -88.15,38.72 -176.66,41.4 -265.23,11.59 -5.22,-1.77 -10.47,-3.64 -15.71,-5.65 -5.17,-1.94 -10.33,-4.02 -15.49,-6.22l-47.77 84.22 -37.73 66.45c-4.5,7.93 -1.73,18.06 6.23,22.55 2.58,1.47 5.37,2.18 8.16,2.18 5.75,0 11.34,-3.03 14.4,-8.4l39.33 -69.34c216.05,86.18 478.16,-3.87 585.32,-236.05 97.56,-211.27 16.7,-438.97 -134.34,-553.72z"/>
  <path class="fil0" d="M242.06 794.03c-4.42,-3.38 -8.72,-6.83 -12.93,-10.35 -36.8,-30.81 -66.46,-67.43 -88.86,-110.4 -27.67,-53.14 -41.44,-109.71 -41.07,-169.65 0.34,-60.12 14.67,-116.79 43.54,-169.48 39.77,-72.58 97.36,-126.48 173.35,-159.33 88.96,-38.44 178.03,-40.33 266.9,-9.33 10.24,3.57 20.51,7.59 30.73,12.04l47.83 -84.29 38.86 -68.48c4.52,-7.97 1.73,-18.07 -6.22,-22.59 -7.95,-4.5 -18.06,-1.71 -22.55,6.25l-40.42 71.22c-218.79,-88.78 -482.06,2.83 -588.92,235.34 -97.97,213.15 -14.8,441.62 137.41,555.38l-39.12 68.96c-4.52,7.96 -1.73,18.06 6.21,22.58 2.58,1.47 5.4,2.16 8.17,2.16 5.74,0 11.33,-3 14.39,-8.39l37.75 -66.55 48.37 -85.21c-4.57,-3.22 -9.04,-6.5 -13.41,-9.86z"/>
  <line class="fil1" x1="770.35" y1="63.91" x2="683.18" y2= "217.52" />
  <line class="fil1" x1="686.02" y1="16.57" x2="598.85" y2= "170.17" />
  <path class="fil0" d="M524.93 611.28c52.92,-92.52 100.89,-179.93 153.76,-272.4l-14.19 0c-28.03,-0.07 -56.06,-0.1 -84.08,-0.28 -3.06,-0.02 -4.65,1.06 -6.06,3.6 -6.47,11.55 -13.13,23 -19.73,34.52 -28.91,50.51 -53.06,96.32 -81.98,146.85 12.55,21.07 34.12,57.28 52.28,87.72z"/>
  <path class="fil0" d="M457.47 545.36c-0.08,0.12 -0.17,0.22 -0.25,0.35 -3.56,-5.93 -6.76,-11.06 -9.76,-16.33 -1.98,-3.47 -3.95,-6.93 -5.93,-10.38l-0.06 -0.08c-33.44,-58.51 -66.88,-117.02 -100.21,-175.59 -2,-3.5 -4.19,-4.79 -8.23,-4.76 -31.91,0.17 -63.83,0.1 -96.93,0.1 73.93,129.27 147.33,257.59 221.36,387.03 17.72,-30.99 35.39,-61.88 53.03,-92.73l-53.02 -87.61z"/>
 </g>
</svg>
